# xmcd
#
# Track frame offsets: 
#        150
#        35171
#        49836
#        81207
#        111279
#        141674
#        170456
#        192477
#        235243
#        253306
#        288738
#
# Disc length: 4315 seconds
#
# Revision: 0
# Processed by: cddbd v1.5.2PL0 Copyright (c) Steve Scherf et al.
# Submitted via: ExactAudioCopy v0.99pb5
#
DISCID=b110d90b
DTITLE=Various Artist - Dues Paid
DYEAR=2009
DGENRE=Blues
TTITLE0=The Dirty Dozen Brass Band - Fiyo on the Bayou
TTITLE1=John Boutte - Good Neighbor
TTITLE2=Eric Lindell - It's a Pity
TTITLE3=Walter "Wolfman" Washington - Close the Door
TTITLE4=Kenny Neal Band - Drivin' Wheel
TTITLE5=Troy Andrews and Orleans Avenue - Like Mike
TTITLE6=Amanda Shaw and The Cute Guys - Sassy Miss Talula
TTITLE7=Paul Sanchez and The Rolling Road Show - St. James Infirmary
TTITLE8=Bruce Daigrepont Cajun Band - Barres de la Prison
TTITLE9=Ivan Neville and Dumpstafunk - Meanwhile
TTITLE10=The Dynamites - Summertime
EXTD=
EXTT0=
EXTT1=
EXTT2=
EXTT3=
EXTT4=
EXTT5=
EXTT6=
EXTT7=
EXTT8=
EXTT9=
EXTT10=
PLAYORDER=
